<mxfile host="65bd71144e">
    <diagram name="Page-1" id="ueudMttdfkXRUOUWZ84N">
        <mxGraphModel dx="2205" dy="1073" grid="0" gridSize="10" guides="1" tooltips="1" connect="1" arrows="1" fold="1" page="0" pageScale="1" pageWidth="827" pageHeight="1169" math="0" shadow="0">
            <root>
                <mxCell id="0"/>
                <mxCell id="1" parent="0"/>
                <mxCell id="8" value="" style="edgeStyle=none;html=1;fontColor=#636363;" parent="1" source="43LiqmM4n7OlOn9uRI8I-2" target="7" edge="1">
                    <mxGeometry relative="1" as="geometry"/>
                </mxCell>
                <mxCell id="11" value="Сбор заявлений&lt;br style=&quot;font-size: 14px;&quot;&gt;не начался" style="edgeLabel;html=1;align=center;verticalAlign=middle;resizable=0;points=[];fontColor=#000000;fontSize=14;" parent="8" vertex="1" connectable="0">
                    <mxGeometry x="-0.4003" y="-1" relative="1" as="geometry">
                        <mxPoint x="1" y="11" as="offset"/>
                    </mxGeometry>
                </mxCell>
                <mxCell id="10" value="" style="edgeStyle=none;html=1;fontColor=#000000;" parent="1" source="43LiqmM4n7OlOn9uRI8I-2" target="43LiqmM4n7OlOn9uRI8I-8" edge="1">
                    <mxGeometry relative="1" as="geometry"/>
                </mxCell>
                <mxCell id="13" value="Сбор заявлений&lt;br style=&quot;border-color: var(--border-color); font-size: 14px;&quot;&gt;идёт" style="edgeLabel;html=1;align=center;verticalAlign=middle;resizable=0;points=[];fontColor=#000000;fontSize=14;" parent="10" vertex="1" connectable="0">
                    <mxGeometry x="-0.245" y="2" relative="1" as="geometry">
                        <mxPoint as="offset"/>
                    </mxGeometry>
                </mxCell>
                <mxCell id="43LiqmM4n7OlOn9uRI8I-2" value="Регистрация" style="ellipse;whiteSpace=wrap;html=1;aspect=fixed;fontSize=16;" parent="1" vertex="1">
                    <mxGeometry x="55" y="21" width="156" height="156" as="geometry"/>
                </mxCell>
                <mxCell id="43LiqmM4n7OlOn9uRI8I-11" value="" style="edgeStyle=none;curved=1;rounded=0;orthogonalLoop=1;jettySize=auto;html=1;fontSize=12;startSize=8;endSize=8;" parent="1" source="43LiqmM4n7OlOn9uRI8I-8" target="43LiqmM4n7OlOn9uRI8I-10" edge="1">
                    <mxGeometry relative="1" as="geometry"/>
                </mxCell>
                <mxCell id="43LiqmM4n7OlOn9uRI8I-8" value="Ввод данных и выбор программы" style="ellipse;whiteSpace=wrap;html=1;aspect=fixed;fontSize=16;" parent="1" vertex="1">
                    <mxGeometry x="335" y="268" width="156" height="156" as="geometry"/>
                </mxCell>
                <mxCell id="43LiqmM4n7OlOn9uRI8I-13" value="" style="edgeStyle=none;curved=1;rounded=0;orthogonalLoop=1;jettySize=auto;html=1;fontSize=12;startSize=8;endSize=8;" parent="1" source="43LiqmM4n7OlOn9uRI8I-10" target="43LiqmM4n7OlOn9uRI8I-20" edge="1">
                    <mxGeometry relative="1" as="geometry">
                        <mxPoint x="847.0000000000005" y="576" as="targetPoint"/>
                    </mxGeometry>
                </mxCell>
                <mxCell id="43LiqmM4n7OlOn9uRI8I-30" value="" style="edgeStyle=none;curved=1;rounded=0;orthogonalLoop=1;jettySize=auto;html=1;fontSize=12;startSize=8;endSize=8;" parent="1" source="43LiqmM4n7OlOn9uRI8I-10" target="43LiqmM4n7OlOn9uRI8I-8" edge="1">
                    <mxGeometry relative="1" as="geometry">
                        <mxPoint x="596" y="157" as="targetPoint"/>
                        <Array as="points">
                            <mxPoint x="724" y="170"/>
                        </Array>
                    </mxGeometry>
                </mxCell>
                <mxCell id="43LiqmM4n7OlOn9uRI8I-31" value="&lt;div&gt;Решили поменять &lt;br&gt;&lt;/div&gt;&lt;div&gt;программу или данные&lt;br&gt;Программа не реализуется&lt;/div&gt;" style="edgeLabel;html=1;align=center;verticalAlign=middle;resizable=0;points=[];fontSize=16;" parent="43LiqmM4n7OlOn9uRI8I-30" vertex="1" connectable="0">
                    <mxGeometry x="0.157" y="17" relative="1" as="geometry">
                        <mxPoint as="offset"/>
                    </mxGeometry>
                </mxCell>
                <mxCell id="43LiqmM4n7OlOn9uRI8I-10" value="Загрузка личных документов и согласия на обработку данных и на зачисление" style="ellipse;whiteSpace=wrap;html=1;aspect=fixed;fontSize=16;" parent="1" vertex="1">
                    <mxGeometry x="769" y="264" width="156" height="156" as="geometry"/>
                </mxCell>
                <mxCell id="43LiqmM4n7OlOn9uRI8I-32" value="" style="edgeStyle=none;curved=1;rounded=0;orthogonalLoop=1;jettySize=auto;html=1;fontSize=12;startSize=8;endSize=8;" parent="1" source="43LiqmM4n7OlOn9uRI8I-20" target="43LiqmM4n7OlOn9uRI8I-8" edge="1">
                    <mxGeometry relative="1" as="geometry"/>
                </mxCell>
                <mxCell id="43LiqmM4n7OlOn9uRI8I-33" value="&lt;div&gt;Решили поменять &lt;br&gt;&lt;/div&gt;&lt;div&gt;программу или данные&lt;br&gt;Программа не реализуется&lt;/div&gt;" style="edgeLabel;html=1;align=center;verticalAlign=middle;resizable=0;points=[];fontSize=16;" parent="43LiqmM4n7OlOn9uRI8I-32" vertex="1" connectable="0">
                    <mxGeometry x="-0.0377" relative="1" as="geometry">
                        <mxPoint as="offset"/>
                    </mxGeometry>
                </mxCell>
                <mxCell id="43LiqmM4n7OlOn9uRI8I-35" value="" style="edgeStyle=none;curved=1;rounded=0;orthogonalLoop=1;jettySize=auto;html=1;fontSize=12;startSize=8;endSize=8;" parent="1" source="43LiqmM4n7OlOn9uRI8I-20" target="43LiqmM4n7OlOn9uRI8I-10" edge="1">
                    <mxGeometry relative="1" as="geometry">
                        <mxPoint x="838.9999999999955" y="649" as="targetPoint"/>
                        <Array as="points">
                            <mxPoint x="889" y="626"/>
                        </Array>
                    </mxGeometry>
                </mxCell>
                <mxCell id="43LiqmM4n7OlOn9uRI8I-36" value="&lt;div&gt;Документы&lt;/div&gt;&lt;div&gt;не подходят&lt;br&gt;&lt;/div&gt;" style="edgeLabel;html=1;align=center;verticalAlign=middle;resizable=0;points=[];fontSize=16;" parent="43LiqmM4n7OlOn9uRI8I-35" vertex="1" connectable="0">
                    <mxGeometry x="0.2023" y="41" relative="1" as="geometry">
                        <mxPoint as="offset"/>
                    </mxGeometry>
                </mxCell>
                <mxCell id="4" value="" style="edgeStyle=none;html=1;" parent="1" source="43LiqmM4n7OlOn9uRI8I-20" target="3" edge="1">
                    <mxGeometry relative="1" as="geometry"/>
                </mxCell>
                <mxCell id="43LiqmM4n7OlOn9uRI8I-20" value="Ожидание подтверждения" style="ellipse;whiteSpace=wrap;html=1;aspect=fixed;fontSize=16;" parent="1" vertex="1">
                    <mxGeometry x="563" y="571" width="156" height="156" as="geometry"/>
                </mxCell>
                <mxCell id="15" value="" style="edgeStyle=none;html=1;fontSize=14;fontColor=#000000;" parent="1" source="3" target="14" edge="1">
                    <mxGeometry relative="1" as="geometry"/>
                </mxCell>
                <mxCell id="19" value="Прошел конкурс" style="edgeLabel;html=1;align=center;verticalAlign=middle;resizable=0;points=[];fontSize=14;fontColor=#000000;" parent="15" vertex="1" connectable="0">
                    <mxGeometry x="-0.3884" y="-3" relative="1" as="geometry">
                        <mxPoint x="10" y="17" as="offset"/>
                    </mxGeometry>
                </mxCell>
                <mxCell id="17" value="" style="edgeStyle=none;html=1;fontSize=14;fontColor=#000000;" parent="1" source="3" target="16" edge="1">
                    <mxGeometry relative="1" as="geometry"/>
                </mxCell>
                <mxCell id="18" value="Не прошел конкурс" style="edgeLabel;html=1;align=center;verticalAlign=middle;resizable=0;points=[];fontSize=14;fontColor=#000000;" parent="17" vertex="1" connectable="0">
                    <mxGeometry x="0.4762" y="3" relative="1" as="geometry">
                        <mxPoint x="9" y="-30" as="offset"/>
                    </mxGeometry>
                </mxCell>
                <mxCell id="3" value="Заявление&lt;br&gt;принято" style="ellipse;whiteSpace=wrap;html=1;aspect=fixed;fontSize=16;" parent="1" vertex="1">
                    <mxGeometry x="265" y="571" width="156" height="156" as="geometry"/>
                </mxCell>
                <mxCell id="9" value="" style="edgeStyle=none;html=1;fontColor=#000000;" parent="1" source="7" target="43LiqmM4n7OlOn9uRI8I-8" edge="1">
                    <mxGeometry relative="1" as="geometry"/>
                </mxCell>
                <mxCell id="7" value="Ожидание начала сбора заявлений" style="ellipse;whiteSpace=wrap;html=1;aspect=fixed;fontSize=16;" parent="1" vertex="1">
                    <mxGeometry x="55" y="268" width="156" height="156" as="geometry"/>
                </mxCell>
                <mxCell id="24" value="" style="edgeStyle=none;html=1;fontSize=14;fontColor=#000000;" parent="1" source="14" target="23" edge="1">
                    <mxGeometry relative="1" as="geometry"/>
                </mxCell>
                <mxCell id="27" value="Отучился" style="edgeLabel;html=1;align=center;verticalAlign=middle;resizable=0;points=[];fontSize=14;fontColor=#000000;rotation=0;" parent="24" vertex="1" connectable="0">
                    <mxGeometry x="-0.2602" y="-2" relative="1" as="geometry">
                        <mxPoint x="2" y="12" as="offset"/>
                    </mxGeometry>
                </mxCell>
                <mxCell id="14" value="Зачислен на программу" style="ellipse;whiteSpace=wrap;html=1;aspect=fixed;fontSize=16;" parent="1" vertex="1">
                    <mxGeometry x="448" y="820" width="156" height="156" as="geometry"/>
                </mxCell>
                <mxCell id="16" value="Не прошел конкурс на программу" style="ellipse;whiteSpace=wrap;html=1;aspect=fixed;fontSize=16;" parent="1" vertex="1">
                    <mxGeometry x="95" y="820" width="156" height="156" as="geometry"/>
                </mxCell>
                <mxCell id="23" value="Программа пройдена" style="ellipse;whiteSpace=wrap;html=1;aspect=fixed;fontSize=16;" parent="1" vertex="1">
                    <mxGeometry x="448" y="1074" width="156" height="156" as="geometry"/>
                </mxCell>
                <mxCell id="31" value="" style="edgeStyle=none;html=1;fontSize=14;fontColor=#000000;" parent="1" source="30" target="23" edge="1">
                    <mxGeometry relative="1" as="geometry"/>
                </mxCell>
                <mxCell id="30" value="Выставляется наличие грамоты" style="rounded=1;whiteSpace=wrap;html=1;fontSize=14;fontColor=#000000;" parent="1" vertex="1">
                    <mxGeometry x="719" y="1108" width="168" height="88" as="geometry"/>
                </mxCell>
                <mxCell id="34" value="" style="edgeStyle=none;html=1;fontSize=14;fontColor=#000000;" parent="1" source="33" target="43LiqmM4n7OlOn9uRI8I-20" edge="1">
                    <mxGeometry relative="1" as="geometry"/>
                </mxCell>
                <mxCell id="33" value="Подтверждение" style="rounded=1;whiteSpace=wrap;html=1;fontSize=14;fontColor=#000000;" parent="1" vertex="1">
                    <mxGeometry x="732" y="762" width="120" height="60" as="geometry"/>
                </mxCell>
                <mxCell id="36" value="" style="edgeStyle=none;html=1;fontSize=14;fontColor=#000000;" parent="1" source="35" target="3" edge="1">
                    <mxGeometry relative="1" as="geometry"/>
                </mxCell>
                <mxCell id="35" value="Выставляется, прошел ли конкурс и куда зачислен" style="rounded=1;whiteSpace=wrap;html=1;fontSize=14;fontColor=#000000;" parent="1" vertex="1">
                    <mxGeometry x="-13" y="601.5" width="196" height="95" as="geometry"/>
                </mxCell>
                <mxCell id="37" value="" style="endArrow=classic;html=1;fontSize=14;fontColor=#000000;strokeWidth=3;" parent="1" edge="1">
                    <mxGeometry width="50" height="50" relative="1" as="geometry">
                        <mxPoint x="1093" y="19" as="sourcePoint"/>
                        <mxPoint x="1093" y="1198" as="targetPoint"/>
                    </mxGeometry>
                </mxCell>
                <mxCell id="39" value="&lt;font style=&quot;font-size: 20px;&quot;&gt;Объявление о приеме&lt;br&gt;заявлений&lt;/font&gt;" style="edgeLabel;html=1;align=center;verticalAlign=middle;resizable=0;points=[];fontSize=14;fontColor=#000000;" parent="37" vertex="1" connectable="0">
                    <mxGeometry x="-0.5154" relative="1" as="geometry">
                        <mxPoint x="7" y="-81" as="offset"/>
                    </mxGeometry>
                </mxCell>
                <mxCell id="40" value="Процесс зачисления" style="edgeLabel;html=1;align=center;verticalAlign=middle;resizable=0;points=[];fontSize=20;fontColor=#000000;" parent="37" vertex="1" connectable="0">
                    <mxGeometry x="0.1942" y="-2" relative="1" as="geometry">
                        <mxPoint y="11" as="offset"/>
                    </mxGeometry>
                </mxCell>
                <mxCell id="41" value="При подписании договоров&lt;br&gt;удаляются заявки, не дошедшие&lt;br&gt;до статуса &quot;Зачислен&quot;" style="edgeLabel;html=1;align=center;verticalAlign=middle;resizable=0;points=[];fontSize=20;fontColor=#000000;" parent="37" vertex="1" connectable="0">
                    <mxGeometry x="0.6947" y="-3" relative="1" as="geometry">
                        <mxPoint y="1" as="offset"/>
                    </mxGeometry>
                </mxCell>
                <mxCell id="49" value="&lt;font style=&quot;font-size: 16px;&quot;&gt;Google Sheet&lt;br&gt;&lt;br&gt;users (no password)&lt;br&gt;&lt;/font&gt;" style="rounded=0;whiteSpace=wrap;html=1;fillColor=none;strokeColor=#005700;fontColor=#ffffff;" vertex="1" parent="1">
                    <mxGeometry x="311" y="2194" width="430" height="244" as="geometry"/>
                </mxCell>
                <mxCell id="53" value="" style="edgeStyle=none;html=1;fontSize=16;entryX=1;entryY=0.5;entryDx=0;entryDy=0;" edge="1" parent="1" source="51" target="57">
                    <mxGeometry relative="1" as="geometry"/>
                </mxCell>
                <mxCell id="55" value="Read, write" style="edgeLabel;html=1;align=center;verticalAlign=middle;resizable=0;points=[];fontSize=16;" vertex="1" connectable="0" parent="53">
                    <mxGeometry x="0.1558" y="-3" relative="1" as="geometry">
                        <mxPoint as="offset"/>
                    </mxGeometry>
                </mxCell>
                <mxCell id="62" value="" style="edgeStyle=none;html=1;fontSize=16;" edge="1" parent="1" source="51" target="61">
                    <mxGeometry relative="1" as="geometry"/>
                </mxCell>
                <mxCell id="63" value="Read" style="edgeLabel;html=1;align=center;verticalAlign=middle;resizable=0;points=[];fontSize=16;" vertex="1" connectable="0" parent="62">
                    <mxGeometry x="0.4106" y="3" relative="1" as="geometry">
                        <mxPoint y="-1" as="offset"/>
                    </mxGeometry>
                </mxCell>
                <mxCell id="51" value="Server" style="rounded=0;whiteSpace=wrap;html=1;fontSize=16;fillColor=none;" vertex="1" parent="1">
                    <mxGeometry x="988" y="1898.5" width="324" height="117" as="geometry"/>
                </mxCell>
                <mxCell id="54" value="" style="edgeStyle=none;html=1;fontSize=16;" edge="1" parent="1" source="52" target="49">
                    <mxGeometry relative="1" as="geometry"/>
                </mxCell>
                <mxCell id="56" value="Read" style="edgeLabel;html=1;align=center;verticalAlign=middle;resizable=0;points=[];fontSize=16;" vertex="1" connectable="0" parent="54">
                    <mxGeometry x="0.2928" y="5" relative="1" as="geometry">
                        <mxPoint as="offset"/>
                    </mxGeometry>
                </mxCell>
                <mxCell id="64" value="" style="edgeStyle=none;html=1;fontSize=16;" edge="1" parent="1" source="52" target="61">
                    <mxGeometry relative="1" as="geometry"/>
                </mxCell>
                <mxCell id="65" value="Read, write" style="edgeLabel;html=1;align=center;verticalAlign=middle;resizable=0;points=[];fontSize=16;" vertex="1" connectable="0" parent="64">
                    <mxGeometry x="-0.4079" y="-1" relative="1" as="geometry">
                        <mxPoint as="offset"/>
                    </mxGeometry>
                </mxCell>
                <mxCell id="69" value="" style="edgeStyle=none;html=1;fontSize=16;" edge="1" parent="1" source="52" target="67">
                    <mxGeometry relative="1" as="geometry"/>
                </mxCell>
                <mxCell id="52" value="Admin" style="rounded=0;whiteSpace=wrap;html=1;fontSize=16;fillColor=none;" vertex="1" parent="1">
                    <mxGeometry x="988" y="2251" width="324" height="117" as="geometry"/>
                </mxCell>
                <mxCell id="59" value="" style="edgeStyle=none;html=1;fontSize=16;" edge="1" parent="1" source="57" target="49">
                    <mxGeometry relative="1" as="geometry"/>
                </mxCell>
                <mxCell id="60" value="Mirror" style="edgeLabel;html=1;align=center;verticalAlign=middle;resizable=0;points=[];fontSize=16;" vertex="1" connectable="0" parent="59">
                    <mxGeometry x="0.3427" y="2" relative="1" as="geometry">
                        <mxPoint as="offset"/>
                    </mxGeometry>
                </mxCell>
                <mxCell id="57" value="&lt;font style=&quot;font-size: 16px;&quot;&gt;MongoDB&lt;br&gt;&lt;br&gt;users&lt;br&gt;tokens&lt;br&gt;&lt;/font&gt;" style="rounded=0;whiteSpace=wrap;html=1;fillColor=none;strokeColor=#005700;fontColor=#ffffff;" vertex="1" parent="1">
                    <mxGeometry x="311" y="1851" width="430" height="244" as="geometry"/>
                </mxCell>
                <mxCell id="61" value="&lt;font style=&quot;font-size: 16px;&quot;&gt;Google Sheet&lt;br&gt;&lt;br&gt;config, states&lt;br&gt;&lt;/font&gt;" style="rounded=0;whiteSpace=wrap;html=1;fillColor=none;strokeColor=#005700;fontColor=#ffffff;" vertex="1" parent="1">
                    <mxGeometry x="1068" y="2079" width="158" height="109" as="geometry"/>
                </mxCell>
                <mxCell id="70" value="" style="edgeStyle=none;html=1;fontSize=16;" edge="1" parent="1" source="67" target="57">
                    <mxGeometry relative="1" as="geometry"/>
                </mxCell>
                <mxCell id="67" value="Update, delete user util&lt;br&gt;&lt;br&gt;Accept / deny docs util" style="rounded=0;whiteSpace=wrap;html=1;fontSize=16;fillColor=none;fontColor=#ffffff;strokeColor=#006EAF;" vertex="1" parent="1">
                    <mxGeometry x="816" y="2071" width="107" height="147" as="geometry"/>
                </mxCell>
            </root>
        </mxGraphModel>
    </diagram>
</mxfile>